<svg width="35" height="35" viewBox="0 0 35 35" fill="none" xmlns="http://www.w3.org/2000/svg">
<rect x="0.25" y="0.25" width="34.5" height="34.5" rx="9.75" stroke="#EFEFEF" stroke-width="0.5"/>
<path d="M11.7118 11.7118C11.368 12.0556 11.375 12.6239 11.7118 12.9607L16.2511 17.5001L11.7118 22.0394C11.375 22.3762 11.368 22.9445 11.7118 23.2883C12.0555 23.6321 12.6309 23.6321 12.9676 23.2953L17.507 18.7559L22.0394 23.2883C22.3762 23.6251 22.9445 23.6321 23.2882 23.2883C23.632 22.9445 23.632 22.3692 23.2953 22.0324L18.7629 17.5001L23.2953 12.9677C23.632 12.6309 23.632 12.0556 23.2882 11.7118C22.9445 11.368 22.3762 11.3751 22.0394 11.7118L17.507 16.2442L12.9676 11.7048C12.6309 11.368 12.0555 11.368 11.7118 11.7118Z" fill="#656565"/>
</svg>
