<svg width="34" height="32" viewBox="0 0 34 32" fill="none" xmlns="http://www.w3.org/2000/svg">
<rect width="34" height="32" rx="10" fill="black" fill-opacity="0.7"/>
<path d="M25.3337 16.0001C25.3337 19.9285 25.3337 21.8926 24.1133 23.113C22.8929 24.3334 20.9287 24.3334 17.0003 24.3334C13.072 24.3334 11.1078 24.3334 9.88738 23.113C8.66699 21.8926 8.66699 19.9285 8.66699 16.0001C8.66699 12.0717 8.66699 10.1075 9.88738 8.88714C11.1078 7.66675 13.072 7.66675 17.0003 7.66675" stroke="white" stroke-linecap="round"/>
<path d="M8.66699 16.4167L10.1266 15.1395C10.886 14.475 12.0306 14.5132 12.7441 15.2267L16.3188 18.8014C16.8915 19.3741 17.793 19.4522 18.4557 18.9865L18.7042 18.8119C19.6577 18.1418 20.9478 18.2194 21.814 18.999L24.5003 21.4167" stroke="white" stroke-linecap="round"/>
<path d="M22.468 8.44624L22.8156 8.09866C23.3915 7.52278 24.3252 7.52278 24.9011 8.09866C25.477 8.67455 25.477 9.60825 24.9011 10.1841L24.5535 10.5317M22.468 8.44624C22.468 8.44624 22.5115 9.18485 23.1632 9.83656C23.8149 10.4883 24.5535 10.5317 24.5535 10.5317M22.468 8.44624L19.2726 11.6417C19.0561 11.8581 18.9479 11.9664 18.8548 12.0857C18.7451 12.2264 18.6509 12.3787 18.5741 12.5399C18.509 12.6765 18.4606 12.8217 18.3638 13.1121L18.0539 14.0417M24.5535 10.5317L21.358 13.7272C21.1416 13.9436 21.0334 14.0518 20.9141 14.1449C20.7733 14.2547 20.621 14.3488 20.4599 14.4256C20.3233 14.4907 20.1781 14.5391 19.8877 14.6359L18.958 14.9458M18.958 14.9458L18.3564 15.1463C18.2136 15.194 18.056 15.1568 17.9495 15.0503C17.843 14.9438 17.8058 14.7862 17.8534 14.6433L18.0539 14.0417M18.958 14.9458L18.0539 14.0417" stroke="white"/>
</svg>
