<svg width="81" height="24" viewBox="0 0 81 24" fill="none" xmlns="http://www.w3.org/2000/svg">
<path d="M19.5 5.5L18.8803 15.5251C18.7219 18.0864 18.6428 19.3671 18.0008 20.2879C17.6833 20.7431 17.2747 21.1273 16.8007 21.416C15.8421 22 14.559 22 11.9927 22C9.42312 22 8.1383 22 7.17905 21.4149C6.7048 21.1257 6.296 20.7408 5.97868 20.2848C5.33688 19.3626 5.25945 18.0801 5.10461 15.5152L4.5 5.5" stroke="#656565" stroke-width="1.5" stroke-linecap="round"/>
<path d="M3 5.5H21M16.0557 5.5L15.3731 4.09173C14.9196 3.15626 14.6928 2.68852 14.3017 2.39681C14.215 2.3321 14.1231 2.27454 14.027 2.2247C13.5939 2 13.0741 2 12.0345 2C10.9688 2 10.436 2 9.99568 2.23412C9.8981 2.28601 9.80498 2.3459 9.71729 2.41317C9.32164 2.7167 9.10063 3.20155 8.65861 4.17126L8.05292 5.5" stroke="#656565" stroke-width="1.5" stroke-linecap="round"/>
<path d="M9.5 16.5V10.5" stroke="#656565" stroke-width="1.5" stroke-linecap="round"/>
<path d="M14.5 16.5V10.5" stroke="#656565" stroke-width="1.5" stroke-linecap="round"/>
<path d="M35.05 17.5V6.7H38.38C38.49 6.7 38.6825 6.7025 38.9575 6.7075C39.2325 6.7125 39.495 6.7325 39.745 6.7675C40.58 6.8775 41.2775 7.1825 41.8375 7.6825C42.4025 8.1775 42.8275 8.8075 43.1125 9.5725C43.3975 10.3375 43.54 11.18 43.54 12.1C43.54 13.02 43.3975 13.8625 43.1125 14.6275C42.8275 15.3925 42.4025 16.025 41.8375 16.525C41.2775 17.02 40.58 17.3225 39.745 17.4325C39.495 17.4625 39.23 17.4825 38.95 17.4925C38.675 17.4975 38.485 17.5 38.38 17.5H35.05ZM36.4225 16.225H38.38C38.57 16.225 38.7825 16.22 39.0175 16.21C39.2525 16.195 39.4575 16.1725 39.6325 16.1425C40.2225 16.0325 40.7 15.785 41.065 15.4C41.43 15.015 41.6975 14.535 41.8675 13.96C42.0375 13.385 42.1225 12.765 42.1225 12.1C42.1225 11.42 42.035 10.7925 41.86 10.2175C41.69 9.6425 41.4225 9.165 41.0575 8.785C40.6925 8.405 40.2175 8.1625 39.6325 8.0575C39.4575 8.0225 39.25 8 39.01 7.99C38.77 7.98 38.56 7.975 38.38 7.975H36.4225V16.225ZM48.77 17.725C47.975 17.725 47.28 17.55 46.685 17.2C46.095 16.845 45.635 16.3525 45.305 15.7225C44.975 15.0875 44.81 14.3475 44.81 13.5025C44.81 12.6175 44.9725 11.8525 45.2975 11.2075C45.6225 10.5575 46.075 10.0575 46.655 9.7075C47.24 9.3525 47.925 9.175 48.71 9.175C49.525 9.175 50.2175 9.3625 50.7875 9.7375C51.3625 10.1125 51.7925 10.6475 52.0775 11.3425C52.3675 12.0375 52.4925 12.865 52.4525 13.825H51.1025V13.345C51.0875 12.35 50.885 11.6075 50.495 11.1175C50.105 10.6225 49.525 10.375 48.755 10.375C47.93 10.375 47.3025 10.64 46.8725 11.17C46.4425 11.7 46.2275 12.46 46.2275 13.45C46.2275 14.405 46.4425 15.145 46.8725 15.67C47.3025 16.195 47.915 16.4575 48.71 16.4575C49.245 16.4575 49.71 16.335 50.105 16.09C50.5 15.845 50.81 15.4925 51.035 15.0325L52.3175 15.475C52.0025 16.19 51.5275 16.745 50.8925 17.14C50.2625 17.53 49.555 17.725 48.77 17.725ZM45.7775 13.825V12.7525H51.7625V13.825H45.7775ZM54.2723 17.5V6.475H55.6073V17.5H54.2723ZM61.3676 17.725C60.5726 17.725 59.8776 17.55 59.2826 17.2C58.6926 16.845 58.2326 16.3525 57.9026 15.7225C57.5726 15.0875 57.4076 14.3475 57.4076 13.5025C57.4076 12.6175 57.5701 11.8525 57.8951 11.2075C58.2201 10.5575 58.6726 10.0575 59.2526 9.7075C59.8376 9.3525 60.5226 9.175 61.3076 9.175C62.1226 9.175 62.8151 9.3625 63.3851 9.7375C63.9601 10.1125 64.3901 10.6475 64.6751 11.3425C64.9651 12.0375 65.0901 12.865 65.0501 13.825H63.7001V13.345C63.6851 12.35 63.4826 11.6075 63.0926 11.1175C62.7026 10.6225 62.1226 10.375 61.3526 10.375C60.5276 10.375 59.9001 10.64 59.4701 11.17C59.0401 11.7 58.8251 12.46 58.8251 13.45C58.8251 14.405 59.0401 15.145 59.4701 15.67C59.9001 16.195 60.5126 16.4575 61.3076 16.4575C61.8426 16.4575 62.3076 16.335 62.7026 16.09C63.0976 15.845 63.4076 15.4925 63.6326 15.0325L64.9151 15.475C64.6001 16.19 64.1251 16.745 63.4901 17.14C62.8601 17.53 62.1526 17.725 61.3676 17.725ZM58.3751 13.825V12.7525H64.3601V13.825H58.3751ZM71.2424 17.5C70.7624 17.595 70.2874 17.6325 69.8174 17.6125C69.3524 17.5975 68.9374 17.505 68.5724 17.335C68.2074 17.16 67.9299 16.89 67.7399 16.525C67.5799 16.205 67.4924 15.8825 67.4774 15.5575C67.4674 15.2275 67.4624 14.855 67.4624 14.44V7.15H68.7974V14.38C68.7974 14.71 68.7999 14.9925 68.8049 15.2275C68.8149 15.4625 68.8674 15.665 68.9624 15.835C69.1424 16.155 69.4274 16.3425 69.8174 16.3975C70.2124 16.4525 70.6874 16.4375 71.2424 16.3525V17.5ZM65.8199 10.5025V9.4H71.2424V10.5025H65.8199ZM76.06 17.725C75.265 17.725 74.57 17.55 73.975 17.2C73.385 16.845 72.925 16.3525 72.595 15.7225C72.265 15.0875 72.1 14.3475 72.1 13.5025C72.1 12.6175 72.2625 11.8525 72.5875 11.2075C72.9125 10.5575 73.365 10.0575 73.945 9.7075C74.53 9.3525 75.215 9.175 76 9.175C76.815 9.175 77.5075 9.3625 78.0775 9.7375C78.6525 10.1125 79.0825 10.6475 79.3675 11.3425C79.6575 12.0375 79.7825 12.865 79.7425 13.825H78.3925V13.345C78.3775 12.35 78.175 11.6075 77.785 11.1175C77.395 10.6225 76.815 10.375 76.045 10.375C75.22 10.375 74.5925 10.64 74.1625 11.17C73.7325 11.7 73.5175 12.46 73.5175 13.45C73.5175 14.405 73.7325 15.145 74.1625 15.67C74.5925 16.195 75.205 16.4575 76 16.4575C76.535 16.4575 77 16.335 77.395 16.09C77.79 15.845 78.1 15.4925 78.325 15.0325L79.6075 15.475C79.2925 16.19 78.8175 16.745 78.1825 17.14C77.5525 17.53 76.845 17.725 76.06 17.725ZM73.0675 13.825V12.7525H79.0525V13.825H73.0675Z" fill="#656565"/>
</svg>
